<svg xmlns="http://www.w3.org/2000/svg" xmlns:xlink="http://www.w3.org/1999/xlink" width="24" height="24" fill="none"><defs><path id="a" d="M0 0H24V24H0z"/></defs><g><mask id="b" fill="#fff"><use xlink:href="#a"/></mask><g mask="url(#b)" fill-rule="evenodd"><path style="fill:#0400ff" transform="translate(2 2)" d="m3.55 17.64.09.08.09.07.1.08.09.07.1.07.1.07.09.07.1.07.1.07.1.07.1.06.1.07.11.06.1.06.1.06.11.06.11.06.1.06.11.06.11.05.11.05.11.06.11.05.11.05.11.04.11.05.12.05.11.04.11.04.12.05.11.04.12.03.12.04.12.04.11.03.12.03.12.03.12.03.12.03.12.03.13.03.12.02.12.02.12.03.13.02.12.01.13.02.12.01.13.02.12.01.13.01.13.01.13.01h.12l.13.01h.52l.13-.01h.12l.13-.01.13-.01.13-.01.12-.01.13-.02.12-.01.13-.02.12-.02.13-.02.12-.02.12-.02.12-.02.13-.03.12-.03.12-.03.12-.03.12-.03.12-.03.12-.03.11-.04.12-.04.12-.03.11-.04.12-.05.11-.04.12-.04.11-.05.11-.05.11-.04.11-.05.11-.05.11-.06.11-.05.11-.05.11-.06.11-.06.1-.06.11-.06.1-.06.1-.06.11-.06.1-.07.1-.06.1-.07.1-.07.1-.07.1-.07.09-.07.1-.07.09-.07.1-.08.09-.07.09-.08.09-.08.09-.08.09-.08.09-.08.09-.08.08-.09.09-.08.08-.08.09-.09.08-.09.08-.09.08-.09.08-.09.08-.09.08-.09.07-.09.08-.1.07-.09.07-.1.07-.1.07-.09.07-.1.07-.1.07-.1.06-.1.07-.1.06-.11.06-.1.06-.1.06-.11.06-.1.06-.11.06-.11.05-.11.05-.11.06-.1.05-.12.05-.11.04-.11.05-.11.05-.11.04-.12.04-.11.04-.12.04-.11.04-.12.04-.12.04-.11.03-.12.03-.12.04-.12.03-.12.02-.12.03-.13.03-.12.02-.12.02-.12.03-.12.02-.13.01-.12.02-.13.01-.12.02-.13.01-.12.01-.13.01-.13.01-.13v-.12l.01-.13v-.52l-.01-.13v-.12l-.01-.13-.01-.13-.01-.13-.01-.12-.02-.13-.01-.12-.02-.13-.01-.12-.02-.13-.03-.12-.02-.12-.02-.12-.03-.13-.03-.12-.02-.12-.03-.12-.04-.12-.03-.12-.03-.11-.04-.12-.04-.12-.04-.12-.04-.11-.04-.12-.04-.11-.04-.11-.05-.12-.05-.11-.04-.11-.05-.11-.06-.11-.05-.11-.05-.11-.05-.11-.06-.11-.06-.1-.06-.11-.06-.11-.06-.1-.06-.1-.06-.11-.07-.1-.06-.1-.07-.1-.07-.1-.07-.1-.07-.09-.07-.1-.07-.1-.07-.09-.08-.1-.08-.09-.07-.09-.08-.09-.08-.09-.08-.09-.08-.09-.08-.09-.09-.08-.08-.09-.09-.08-.08-.09-.09-.08-.09-.08-.09-.08-.09-.08-.09-.08-.09-.07-.09-.08-.1-.08-.09-.07-.1-.07-.1-.07-.09-.07-.1-.07-.1-.07-.1-.07-.1-.06-.1-.07-.11-.06-.1-.06-.1-.06-.11-.06-.1-.06-.11-.06-.11-.06-.11-.05-.11-.05-.11-.06-.11-.05L14 .84l-.11-.05-.11-.05-.12-.04-.11-.05-.11-.04-.12-.04-.11-.04-.12-.04-.12-.04-.12-.04-.11-.03-.12-.03-.12-.04-.12-.03-.12-.02-.12-.03-.13-.03-.12-.02-.12-.02-.12-.02-.13-.02L11.4.1l-.13-.02-.12-.01-.13-.02-.12-.01-.13-.01-.13-.01-.13-.01h-.12L10.26 0h-.52l-.13.01h-.12l-.13.01-.13.01-.13.01-.12.01-.13.02-.12.01L8.6.1l-.12.02-.13.02-.12.02-.12.02-.12.02-.13.03-.12.03-.12.03-.12.03-.12.03-.12.03-.11.03-.12.04-.12.04-.12.04-.11.04-.12.04-.11.04-.11.05-.12.04-.11.05L6 .83l-.11.05-.11.06-.11.05-.11.05-.11.06-.11.05-.1.06-.11.06-.11.06-.1.06-.1.06-.11.06-.1.07-.1.06-.1.07-.1.07-.1.07-.09.07-.1.07-.1.07-.09.07-.1.08-.09.08-.09.07-.09.08-.09.08-.09.08-.09.08-.09.08-.08.09-.09.08-.08.09-.09.08-.08.09-.08.09-.08.09-.08.09-.08.09-.07.09-.08.09-.08.1-.07.09-.07.1-.07.1-.07.09-.07.1-.07.1-.07.1-.06.1-.07.1-.06.11-.06.1-.06.1-.06.11-.06.11-.06.1-.05.11-.06.11-.05.11-.05.11-.06.11L.83 6l-.04.11-.05.11-.05.12-.04.11-.04.11-.04.12-.04.12-.04.11-.04.12-.04.12-.03.11-.03.12-.03.12-.03.12-.03.12-.03.12-.03.13-.02.12-.02.12-.02.13-.02.12-.02.12-.02.13-.01.12-.02.13-.01.12-.01.13-.01.13-.01.13v.12L0 9.74v.52l.01.13v.12l.01.13.01.13.01.13.01.12.02.13.01.12.02.13.02.12.02.13.02.12.02.12.02.12.03.13.03.12.03.12.03.12.03.12.03.12.03.12.04.11.04.12.04.12.04.11.04.12.04.11.04.12.05.11.05.11.04.11.05.11.06.12.05.1.05.11.06.11.05.11.06.11.06.1.06.11.06.1.06.1.06.11.07.1.06.1.07.1.07.1.07.1.07.09.07.1.07.1.07.09.08.1.08.09.07.09.08.09.08.09.08.09.08.09.08.09.09.09.08.08.09.08.08.09.09.08.09.08.09.08.09.08.09.08Zm4.09 1.05.11.03.11.02.11.03.11.02.11.03.11.02.11.02.11.02.11.02.11.01.11.02.12.01.11.01.11.01.12.01.11.01.12.01h.11l.12.01H10.23l.12-.01h.11l.12-.01.11-.01.12-.01.11-.01.11-.01.12-.01.11-.02.11-.01.11-.02.11-.02.11-.02.11-.02.11-.03.11-.02.11-.03.11-.02.11-.03.1-.03.11-.03.1-.03.11-.04.1-.03.11-.04.1-.04.11-.03.1-.04.1-.04.1-.05.1-.04.1-.04.1-.05.1-.05.1-.04.09-.06.1-.04.1-.06.09-.05.1-.05.09-.06.09-.05.1-.06.09-.06.09-.06.09-.06.09-.06.09-.06.08-.06.09-.07.09-.06.08-.07.09-.07.08-.07.09-.07.08-.06.08-.08.08-.07.08-.07.08-.08.08-.07.07-.08.08-.07.07-.08.08-.08.07-.08.07-.08.07-.08.07-.08.07-.09.07-.08.07-.09.07-.08.06-.09.07-.08.06-.09.06-.09.06-.09.06-.09.06-.09.06-.09.06-.09.05-.1.06-.09.05-.1.05-.09.05-.1.05-.09.05-.1.05-.1.05-.1.04-.1.05-.1.04-.1.05-.1.04-.1.03-.1.04-.11.04-.1.04-.11.03-.1.03-.11.04-.1.03-.11.03-.1.03-.11.02-.11.03-.11.02-.11.03-.11.02-.11.02-.11.02-.11.02-.11.01-.11.02-.11.01-.12.01-.11.01-.11.01-.12.01-.11.01-.12v-.11l.01-.12V9.77l-.01-.12v-.11l-.01-.12-.01-.11-.01-.12-.01-.11-.01-.11-.01-.12-.02-.11-.01-.11-.02-.11-.02-.11-.02-.11-.02-.11-.03-.11-.02-.11-.03-.11-.02-.11-.03-.11-.03-.1-.03-.11-.03-.1-.04-.11-.03-.1-.04-.11-.04-.1-.03-.11-.04-.1-.04-.1-.05-.1-.04-.1-.05-.1-.04-.1-.05-.1-.05-.1-.05-.09-.04-.1-.06-.1-.05-.09-.05-.1-.06-.09-.05-.09-.06-.1-.06-.09-.06-.09-.06-.09-.06-.09-.06-.09-.06-.09-.07-.08-.06-.09-.07-.08-.07-.09-.07-.08-.07-.08-.07-.09-.07-.08-.07-.08-.07-.08-.08-.08-.07-.08-.08-.07-.07-.08-.08-.07-.08-.08-.08-.07-.08-.07-.08-.07-.08-.07-.09-.07-.08-.07-.09-.07-.08-.07-.09-.06-.09-.07-.08-.06-.09-.06-.09-.06-.09-.06-.09-.06-.09-.06-.1-.06-.09-.05-.09-.06-.1-.05-.09-.05-.1-.06-.09-.04-.1-.06-.1-.04-.1-.05-.1-.05-.1-.04-.1-.04-.1-.04-.1-.04-.1-.05-.11-.03-.1-.04-.11-.04-.1-.03-.11-.04-.1-.03-.11-.03-.1-.03-.11-.03-.11-.02-.11-.03-.11-.02-.11-.03-.11-.02-.11-.02-.11-.02-.11-.02-.11-.01-.11-.02-.12-.01-.11-.01-.11-.01-.12-.01-.11-.01-.12-.01h-.11L10.23 1H9.77l-.12.01h-.11l-.12.01-.11.01-.12.01-.11.01-.11.01-.12.01-.11.02-.11.01-.11.02-.11.02-.11.02-.11.02-.11.03-.11.02-.11.03-.11.02-.11.03-.1.03-.11.03-.1.03-.11.04-.1.03-.11.04-.1.04-.11.03-.1.05-.1.03-.1.05-.1.04-.1.04-.1.05-.1.05-.1.05-.09.05-.1.04-.1.06-.09.05-.1.05-.09.06-.09.05-.1.06-.09.06-.09.06-.09.06-.09.06-.09.06-.08.07-.09.06-.09.06-.08.07-.09.07-.08.07-.09.07-.08.07-.08.07-.08.07-.08.07-.08.08-.08.07-.07.08-.08.08-.07.07-.08.08-.07.08-.07.08-.07.08-.07.09-.07.08-.07.08-.07.09-.07.08-.06.09-.07.09-.06.08-.06.09-.06.09-.06.09-.06.09-.06.09-.06.1-.05.09-.06.09-.05.1-.05.09-.05.1-.05.1-.05.09-.05.1-.05.1-.04.1-.05.1-.04.1-.05.1-.04.1-.03.1-.04.11-.04.1-.04.11-.03.1-.03.11-.04.1-.03.11-.03.1-.03.11-.02.11-.03.11-.02.11-.03.11-.02.11-.02.11-.02.11-.02.11-.01.11-.02.11-.01.12-.01.11-.01.11-.01.12-.01.11-.01.12v.11L1 9.77V10.23l.01.12v.11l.01.12.01.11.01.12.01.11.01.11.01.12.02.11.01.11.02.11.02.11.02.11.02.11.03.11.02.11.03.11.02.11.03.11.03.1.03.11.03.1.04.11.03.1.04.11.04.1.03.11.04.1.04.1.05.1.04.1.04.1.05.1.05.1.05.1.05.1.04.09.06.1.05.09.05.1.06.09.05.1.06.09.06.09.06.09.06.09.06.09.06.09.06.09.07.08.06.09.07.08.07.09.07.08.07.09.07.08.07.08.07.08.07.08.08.08.07.08.08.07.07.08.08.07.08.08.08.07.08.07.08.07.08.07.09.07.08.07.09.07.08.07.09.06.08.07.09.06.09.06.09.06.09.06.09.06.09.06.1.06.09.05.09.06.1.05.09.05.1.06.09.05.1.05.1.04.1.05.1.05.1.04.1.04.1.05.1.03.1.05.11.03.1.04.11.04.1.03.11.04.1.03.11.03.1.03Z"/><g><path style="fill:#0400ff" d="m6.23 8.66.1-.05.1-.04.1-.05.1-.05.09-.05.1-.06.09-.05.09-.06.09-.07.09-.06.09-.07.09-.07.08-.07.08-.07.09-.08.08-.07.07-.09.08-.08.07-.08.07-.08.07-.09.07-.09.06-.09.07-.09.06-.09.05-.09.06-.1.05-.1.05-.09.05-.1.04-.1.05-.1.04-.1.04-.11.03-.1.04-.1.03-.11.03-.1.02-.11.02-.11.02-.11.02-.11.02-.11.01-.11.01-.11.01-.11v-.34l-.01-.12v-.11l-.01-.11-.02-.12-.01-.11-.02-.11-.02-.11-.03-.11-.02-.11-.03-.11-.03-.1-.04-.11-.03-.1-.04-.11-.04-.1-.05-.1-.05-.1-.04-.1-.05-.09-.06-.1-.05-.09-.06-.09-.06-.09-.06-.09-.07-.09-.06-.09-.07-.08-.07-.08-.07-.08-.08-.08-.07-.08-.08-.08-.08-.07-.08-.07-.08-.07-.09-.07L7.19.9 7.1.83 7.01.77 6.92.71 6.83.65 6.74.6l-.1-.06-.1-.05-.09-.05-.1-.04-.1-.05-.1-.04-.11-.04-.1-.03L5.83.2l-.1-.03-.11-.03-.11-.03L5.4.09 5.29.07 5.18.05 5.07.04 4.95.02 4.84.01h-.12L4.61 0h-.24l-.11.01h-.12l-.11.01-.11.02-.11.01-.11.02-.11.02-.11.02-.11.03-.11.03-.11.03-.1.04-.1.03-.11.04-.1.04-.1.05-.1.04-.09.05-.1.05-.1.05-.09.06-.09.06-.09.06-.09.06-.09.06-.08.07-.09.07-.08.07-.08.07-.08.07-.07.07-.08.08-.07.08-.08.08-.07.08-.06.09-.07.08-.06.09-.06.09-.06.09-.06.09-.05.09-.06.1-.05.09-.05.1-.04.1-.05.1-.04.1-.04.11-.03.1-.04.1-.03.11-.03.11-.02.11-.03.1-.02.12-.02.11-.01.11-.02.11-.01.11v.12L0 4.37v.17l.01.05.01.05.01.04.02.04.02.04.03.04.03.04.03.03.04.03.04.02.04.03.04.02.04.01.05.01.04.01h.1l.04-.01.05-.01.04-.01.04-.02.04-.03.04-.02.04-.03.03-.03.03-.04.03-.04.02-.04.02-.04.01-.04.01-.05.01-.04V4.4l.01-.09v-.09l.01-.09.01-.09.01-.08.01-.09.02-.08.02-.09.02-.08.02-.09.03-.08.02-.08.03-.08.03-.08.03-.08.04-.08.03-.07.04-.08.04-.07.04-.08.04-.07.05-.07.05-.07.04-.07.05-.07.05-.07.06-.06.05-.06.06-.07.05-.06.06-.06.06-.06.06-.05.07-.06.06-.05.07-.06.06-.05.07-.05.07-.04.07-.05.07-.05.07-.04.08-.04.07-.04.08-.04.07-.03.08-.04.08-.03.08-.03.08-.03.08-.02.08-.03.09-.02.08-.02.09-.02.08-.02.09-.01.09-.01.08-.01.09-.01.09-.01h.36l.09.01.09.01.09.01.09.01.08.01.09.02.08.02.09.02.08.02.09.03.08.02.08.03.08.03.08.03.08.04.07.04.08.03.07.04.08.04.07.05.07.04.07.05.07.05.07.05.07.05.06.05.07.05.06.06.06.06.06.06.06.06.06.06.05.06.06.07.05.06.05.07.05.07.05.07.05.07.04.07.04.07.05.08.04.07.03.08.04.07.03.08.04.08.03.08.03.08.02.08.03.09.02.08.02.08.02.09.02.09.01.08.01.09.01.09.01.09.01.09V4.68l-.01.09-.01.09-.01.08-.01.09-.01.08-.02.08-.01.09-.03.08-.02.08-.02.09-.03.08-.02.08-.03.08-.04.08-.03.07-.03.08-.04.08-.04.07-.04.08-.05.07-.04.07-.05.08-.04.07-.05.07-.06.06-.05.07-.05.07-.06.06-.06.07-.06.06-.06.06-.07.06-.06.05-.07.06-.06.05-.07.05-.07.05-.07.05-.07.05-.08.04-.07.05-.08.04-.07.04-.08.03-.07.04-.08.03-.08.04-.08.03-.08.02-.08.03-.08.02-.09.02-.08.02-.08.02-.09.02-.08.01-.09.01-.08.01-.09.01-.09.01H4v3.55l.01.04.01.05.01.04.02.04.03.04.02.04.03.04.03.03.04.03.04.02.04.03.04.02.04.01.05.01.04.01h.1l.04-.01.05-.01.04-.01.04-.02.04-.03.04-.02.04-.03.03-.03.03-.04.02-.04.03-.04.02-.04.01-.04.01-.05.01-.04V8.97h.07l.11-.02.1-.02.11-.02.11-.02.11-.03.1-.02.11-.04.1-.03.11-.03.1-.04.1-.04Z" transform="translate(7.5 5.501)"/><path style="fill:#0400ff" transform="translate(7.5 5.501) translate(4 12.499)" d="M1 .5V.45L.99.42V.4L.98.37V.35L.97.33.96.3.95.28.94.26.93.24.91.22.9.2.89.18.87.16.85.15.84.13.82.11.8.1.78.09.76.07.74.06.72.05.69.04.67.03.65.02H.62L.6.01H.58L.55 0h-.1L.42.01H.4L.37.02H.35L.33.03.3.04.28.05.26.06.24.07.22.09.2.1.18.11.16.13.15.15.13.16.11.18.1.2.08.22.07.24.06.26.05.28.04.3.03.33.02.35v.02L.01.4v.02L0 .45v.1l.01.03V.6l.01.03v.02l.01.02.01.02.01.03.01.02.01.02.01.02L.1.8l.01.02.02.02.02.01.01.02.02.02L.2.9l.02.01.02.02.02.01.02.01.02.01.03.01.02.01h.02L.4.99h.02L.45 1h.1L.58.99H.6L.62.98h.03L.67.97.69.96.72.95.74.94.76.93.78.91.8.9.82.89.84.87.85.85.87.84.89.82.9.8.91.78.93.76.94.74.95.72.96.69.97.67.98.65V.63L.99.6V.58L1 .55V.5Z"/></g></g></g></svg>