<svg xmlns="http://www.w3.org/2000/svg" xmlns:xlink="http://www.w3.org/1999/xlink" width="24" height="24" fill="none"><defs><path id="a" d="M0 0H24V24H0z"/></defs><g><mask id="b" fill="#fff"><use xlink:href="#a"/></mask><g mask="url(#b)" fill-rule="evenodd"><path style="fill:#0400ff" transform="translate(9 9)" d="m2.32 5.92.08.02.07.01.07.02h.08l.07.01.08.01.08.01H3.15l.08-.01.08-.01.07-.01h.08l.07-.02.07-.01.08-.02.07-.01.07-.02.07-.03.07-.02.07-.02.07-.03.07-.03.06-.03.07-.03.07-.03.06-.03.06-.04.07-.03.06-.04.06-.04.06-.04.06-.05.05-.04.06-.05.05-.04.06-.05.05-.05.05-.05.05-.05.05-.05.05-.06.04-.05.05-.06.04-.06.05-.05.04-.06.04-.06.04-.06.03-.07.04-.06.03-.06.03-.07.03-.07.03-.06.03-.07.03-.07.02-.07.03-.07.02-.07.02-.07.01-.07.02-.08.01-.07.02-.07.01-.08v-.07l.01-.08.01-.08V2.85l-.01-.08-.01-.08v-.07l-.01-.08-.02-.07-.01-.07-.02-.08-.01-.07-.02-.07-.03-.07-.02-.07-.02-.07-.03-.07-.03-.07-.03-.06-.03-.07-.03-.07-.03-.06-.04-.06-.03-.07-.04-.06-.04-.06-.04-.06-.05-.05-.04-.06-.05-.06-.04-.05-.05-.06-.05-.05-.05-.05-.05-.05-.05-.05-.06-.05-.05-.04-.06-.05L4.8.6 4.74.55 4.68.51 4.62.47 4.56.43 4.49.4 4.43.36 4.37.33 4.3.3 4.23.27 4.17.24 4.1.21 4.03.18 3.96.16 3.89.13 3.82.11 3.75.09 3.68.08 3.6.06 3.53.05 3.46.03h-.08L3.31.01h-.08L3.15 0H2.85l-.08.01-.08.01-.07.01h-.08l-.07.02-.07.01-.08.02-.07.01-.07.02-.07.03-.07.02-.07.02-.07.03-.07.03-.06.03L1.7.3l-.07.03-.06.03-.06.04-.07.04-.06.03-.06.04-.06.04L1.2.6l-.05.04-.06.05-.05.04-.06.05-.05.05-.05.05-.05.05-.05.05-.05.06-.04.05-.05.06-.04.06-.05.05-.04.06-.04.06-.04.06-.03.07-.04.06-.03.07-.03.06-.03.07-.03.06-.03.07-.03.07-.02.07-.03.07-.02.07-.02.07-.01.07-.02.08-.01.07-.02.07-.01.08v.07l-.01.08-.01.08V3.15l.01.08.01.08v.07l.01.08.02.07.01.07.02.08.01.07.02.07.03.07.02.07.02.07.03.07.03.07.03.06.03.07.03.07.03.06.04.06.04.07.03.06.04.06.04.06.05.05.04.06.05.06.04.05.05.06.05.05.05.05.05.05.05.05.06.05.05.04.06.05.05.04.06.05.06.04.06.04.06.04.07.03.06.04.07.03.06.03.07.03.06.03.07.03.07.03.07.02.07.03.07.02.07.02.07.01Zm-.319-1.189.05.03.04.02.04.02.05.02.04.02.05.02.04.02.05.01.04.02.05.01.05.02.05.01.05.01.05.01.04.01h.05l.05.01h.05l.06.01h.2l.05-.01h.05l.05-.01h.05l.05-.01.05-.01.05-.01.05-.01.05-.02.04-.01.05-.02.05-.01.04-.02.05-.02.04-.02.04-.02.05-.02.04-.02.04-.03.05-.02.03-.03.05-.02.04-.03.03-.03.04-.03.04-.03.04-.03.03-.03.04-.03.03-.04.04-.03.03-.04.03-.03.03-.04.03-.04.03-.04.03-.03.03-.04.02-.04.03-.04.02-.05.03-.04.02-.04.02-.04.02-.05.02-.04.02-.05.02-.04.01-.05.02-.05.01-.04.02-.05.01-.05.01-.05.01-.05.01-.05v-.05l.01-.05v-.05l.01-.05v-.2l-.01-.05v-.06l-.01-.05v-.05l-.01-.05-.01-.04-.01-.05-.01-.05-.02-.05-.01-.04-.02-.05-.01-.05-.02-.04-.02-.05-.02-.04-.02-.05-.02-.04-.02-.04-.03-.04-.02-.05-.03-.04-.02-.04-.03-.04-.03-.04-.03-.03-.03-.04-.03-.04-.03-.03-.03-.04-.04-.03-.03-.04-.04-.03-.03-.03-.04-.03-.04-.03-.04-.03-.03-.03-.04-.03-.05-.03-.03-.02-.05-.03-.04-.02-.04-.02-.05-.02-.04-.02-.04-.02-.05-.02-.04-.02-.05-.02-.05-.01-.04-.01-.05-.02-.05-.01-.05-.01-.05-.01-.05-.01h-.05l-.05-.01h-.05l-.05-.01h-.2l-.06.01h-.1l-.05.01-.05.01-.04.01-.05.01-.05.01-.05.01-.05.02-.04.01-.05.02-.04.02-.05.02-.04.02-.05.02-.04.02-.04.02-.05.02-.04.03-.04.02-.04.03-.04.03-.04.03-.04.03-.03.03-.04.03-.03.03-.04.03-.04.03-.03.04-.03.04-.03.03-.03.04-.03.03-.03.04-.03.04-.03.04-.03.04-.02.04-.03.04-.02.05-.02.04-.02.04-.02.05-.02.04-.02.05-.02.04-.02.05-.01.05-.02.04-.01.05-.01.05-.01.05-.01.05-.01.04-.01.05v.1l-.01.06v.2l.01.05v.1l.01.05.01.05.01.05.01.05.01.05.01.05.02.04.01.05.02.05.02.04.02.05.02.04.02.04.02.05.02.04.02.04.03.05.02.03.03.05.03.04.03.03.03.04.03.04.03.04.03.03.03.04.03.03.04.04.04.03.03.03.04.03.03.03.04.03.04.03.04.03.04.02.04.03.04.02Z"/><path style="fill:#0400ff" transform="translate(2.889 2.001)" d="m16.82 11.94-.06-.07-.05-.08-.06-.07-.05-.08-.05-.08-.05-.08-.04-.08-.05-.09-.02-.04-.02-.04-.02-.05-.01-.04-.02-.04-.02-.05-.02-.04-.01-.05-.02-.04-.01-.05-.01-.05-.02-.04-.01-.05-.01-.05-.01-.04-.01-.05-.01-.05-.01-.05-.01-.05v-.04l-.01-.05v-.05l-.01-.05v-.05l-.01-.05v-.3l.01-.05v-.05l.01-.05v-.05l.01-.05v-.04l.01-.05.01-.05.01-.05.01-.05.01-.04.01-.05.01-.05.02-.05.01-.04.01-.05.02-.04.01-.05.02-.04.02-.05.01-.04.02-.04.02-.05.04-.08.04-.09.05-.08.05-.08.05-.08.05-.08.06-.08.05-.07.06-.07.06-.07.07-.07.06-.07.07-.07.07-.06.07-.06.07-.06.08-.05.08-.06.07-.05.03-.02.03-.02.03-.02.03-.02.03-.02.02-.02.03-.03.02-.02.03-.02.02-.03.03-.02.02-.03.02-.02.02-.03.02-.03.02-.02.02-.03.02-.03.02-.02.02-.03.02-.03.01-.03.03-.06.03-.06.03-.06.02-.07.02-.06.01-.06.02-.07.01-.06.01-.07v-.27l-.01-.03V6l-.01-.04v-.03l-.01-.03v-.04l-.01-.03-.01-.03-.01-.04-.01-.03-.01-.03-.01-.03-.02-.04-.01-.03-.01-.03-.02-.03-.05-.1-.04-.09-.05-.09-.05-.09-.05-.09-.05-.09-.06-.08-.05-.09-.06-.09-.05-.08-.06-.09-.06-.08-.06-.08-.06-.08-.07-.09-.06-.08-.04-.04-.04-.06-.05-.04-.04-.05-.05-.04-.05-.04-.05-.04-.05-.03-.05-.03-.06-.03-.05-.03-.06-.03-.05-.02-.06-.02-.06-.02-.06-.02-.06-.01-.06-.01-.06-.01-.06-.01h-.19l-.06.01-.06.01-.06.01-.06.01-.06.01-.06.02-.06.02-.06.03-.06.02-.07.04-.08.03-.07.03-.08.03-.08.02-.08.02-.08.03-.07.02-.08.01-.09.02-.08.01-.08.01-.08.01h-.09L14.2 4H14.03l-.07-.01h-.08l-.08-.01-.07-.01-.08-.01-.07-.01-.07-.01-.08-.02-.07-.02-.07-.01-.07-.03-.07-.02-.07-.02-.07-.03-.07-.03-.06-.03-.07-.03-.06-.03-.07-.03-.06-.04-.06-.04-.07-.03-.06-.04-.06-.04-.05-.05-.06-.04-.06-.05-.05-.04-.06-.05-.05-.05-.05-.05-.05-.05-.05-.05-.05-.06-.04-.05-.05-.06-.04-.06-.04-.05-.05-.06-.04-.07-.03-.06-.04-.06-.04-.06-.03-.07-.03-.06-.03-.07-.03-.06-.03-.07-.03-.07-.02-.07-.02-.07-.03-.07-.01-.07-.02-.07-.02-.08-.01-.07-.01-.08-.02-.07v-.07l-.01-.08-.01-.08v-.2L11.1.91V.87l-.01-.04-.01-.05-.01-.04-.01-.04-.02-.04-.01-.04-.02-.04-.02-.03-.02-.04-.02-.03-.03-.04-.02-.03-.03-.03-.03-.03-.03-.03-.03-.03-.03-.03-.03-.02-.04-.03-.03-.02-.04-.02-.04-.02-.04-.02-.04-.01-.04-.02-.04-.01-.04-.01-.05-.01h-.04l-.14-.02-.15-.01-.14-.01L9.7.02 9.55.01 9.41 0h-.59l-.15.01-.15.01-.14.01-.15.01-.15.01-.14.01-.04.01-.05.01-.04.01-.04.01-.04.01-.04.02-.04.02-.04.02-.04.02-.03.02-.04.02-.03.03-.03.03-.03.02-.03.03-.03.03-.03.04-.03.03-.02.03-.02.04-.02.03-.02.04-.02.04-.02.04-.01.04-.01.04-.01.04-.01.04-.01.05-.01.04v.24l-.01.08-.01.07v.08l-.01.07-.02.08-.01.07-.02.08-.01.07-.02.07-.02.07-.03.07-.02.07-.03.07-.03.07-.02.06-.04.07-.03.06-.03.07-.04.06-.03.06-.04.07-.04.06-.04.05-.05.06-.04.06-.04.06-.05.05-.05.06-.05.05-.05.05-.05.05-.05.05-.06.05-.05.04-.06.05-.05.04-.06.05-.06.04-.06.04-.06.03-.07.04-.06.04-.06.03-.07.03-.07.03-.06.03-.07.03-.07.03-.07.02-.07.03-.07.01-.07.02-.07.02-.08.02-.07.01-.07.01-.08.01-.07.01-.08.01h-.08L4.19 4h-.16l-.09-.01h-.08l-.09-.01-.08-.01-.08-.01-.08-.02-.08-.02-.08-.02-.08-.02-.08-.03-.07-.03-.07-.03-.08-.04-.03-.01-.04-.02-.03-.02-.04-.02-.06-.03-.06-.02-.06-.03-.06-.01-.07-.02-.06-.01-.06-.01-.07-.01-.06-.01h-.13l-.06.01h-.06l-.06.01-.07.01-.06.01-.06.02-.06.02-.06.02-.06.03-.05.02-.06.03-.06.03-.05.04-.05.03-.05.04-.05.04-.05.04-.05.05-.04.05-.05.05-.03.05-.06.08-.06.09-.06.08-.06.09-.06.08-.05.09-.06.09-.05.08-.05.09-.06.09-.05.09-.05.09-.05.09-.05.09-.05.09-.05.09-.01.03-.02.04-.01.03-.01.03-.02.04-.01.03-.01.03-.01.03-.01.04v.03l-.01.03-.01.04v.03L.01 6v.03L0 6.06V6.3l.01.03.01.07.01.06.01.07.02.06.02.07.02.06.02.06.03.06.02.03.01.03.02.03.01.03.02.03.02.03.02.03.02.02.02.03.02.03.02.02.03.03.02.02.02.03.03.02.02.03.03.02.02.02.03.03.03.02.02.02.03.02.03.02.03.02.08.05.08.05.07.06.08.06.07.06.07.06.07.06.06.07.07.07.06.07.06.07.05.07.06.08.05.08.05.08.05.08.05.08.04.09.02.04.02.04.02.05.02.04.01.04.02.05.02.04.01.05.02.04.01.05.02.05.01.04.01.05.01.05.01.04.01.05.01.05.01.05.01.04v.05l.01.05.01.05v.1l.01.05v.3l-.01.05v.1l-.01.05-.01.05v.04l-.01.05-.01.05-.01.05-.01.05-.01.04-.01.05-.01.05-.01.04-.02.05-.01.05-.02.04-.01.05-.02.04-.02.05-.01.04-.02.04-.02.05-.04.08-.04.09-.05.08-.05.08-.05.08-.05.08-.05.07-.06.08-.06.07-.06.07-.07.07-.06.07-.07.06-.07.07-.07.06-.07.05-.08.06-.07.06-.08.05-.03.02-.03.02-.03.02-.03.02-.03.02-.02.02-.03.02-.02.03-.03.02-.02.03-.03.02-.02.02-.02.03-.02.03-.02.02-.02.03-.02.03-.02.03-.02.02-.02.03-.01.03-.02.03-.03.06-.03.06-.02.06-.02.06-.03.07-.01.06-.02.07-.01.06v.07l-.01.06v.2l.01.04V14l.01.04v.03l.01.03.01.03v.04l.01.03.01.03.01.04.01.03.01.03.02.04.01.03.02.03.01.03.05.09.04.1.05.09.05.09.05.09.06.08.05.09.05.09.06.09.06.08.05.09.06.08.06.08.07.08.06.08.07.08.04.05.04.05.04.05.05.04.04.05.05.04.05.03.05.04.05.03.06.03.05.03.06.03.05.02.06.02.06.02.06.01.06.02.06.01.06.01h.06l.06.01h.07l.06-.01h.06l.06-.01.06-.01.06-.01.06-.02.06-.01.06-.03.06-.02.06-.03.08-.03.07-.03.08-.03.07-.03.08-.02.08-.03.08-.02.08-.02.08-.01.08-.02.08-.01.08-.01.09-.01.08-.01h.32l.08.01h.08l.07.01.08.01.07.02.07.01.08.02.07.01.07.02.07.02.07.03.07.02.07.03.07.02.06.03.07.03.07.04.06.03.06.04.07.03.06.04.06.04.06.04.06.04.05.05.06.04.05.05.06.05.05.05.05.05.05.05.05.05.05.06.05.05.04.06.04.05.05.06.04.06.04.06.04.06.03.07.04.06.03.06.03.07.04.06.02.07.03.07.03.07.02.07.03.07.02.07.02.07.01.07.02.07.01.08.02.07.01.08v.07l.01.08.01.07v.2l.01.05v.04l.01.04.01.04.01.05.01.04.02.04.01.04.02.03.02.04.02.04.02.03.03.04.02.03.03.03.03.03.03.03.03.03.03.03.04.02.03.03.04.02.03.02.04.02.04.01.04.02.04.01.04.02.04.01h.05l.04.01.15.02.14.01.15.01.14.01.15.01h.15l.14.01h.3l.15-.01h.14l.15-.01.15-.01.14-.01.15-.01.14-.02h.04l.05-.01.04-.01.04-.01.04-.02.04-.01.04-.02.04-.02.04-.02.03-.02.04-.03.03-.02.03-.03.03-.03.03-.03.03-.03.03-.03.03-.03.02-.03.02-.04.02-.04.02-.03.02-.04.02-.04.01-.04.01-.04.02-.04.01-.05v-.04l.01-.04v-.25l.01-.07.01-.08v-.07l.02-.08.01-.07.01-.08.02-.07.02-.07.01-.07.03-.07.02-.07.02-.07.03-.07.03-.07.03-.07.03-.06.03-.07.03-.06.04-.06.04-.07.03-.06.04-.06.05-.06.04-.06.04-.05.05-.06.04-.05.05-.06.05-.05.05-.05.05-.05.05-.05.06-.05.05-.05.06-.04.06-.05.05-.04.06-.04.06-.04.07-.04.06-.03.06-.04.07-.03.06-.04.07-.03.06-.03.07-.02.07-.03.07-.02.07-.03.07-.02.07-.02.07-.01.08-.02.07-.01.07-.02.08-.01.07-.01h.08l.08-.01h.32l.09.01.08.01.08.01.08.01.08.02.08.02.08.02.08.02.08.03.07.03.08.03.07.03.04.02.03.02.04.02.03.02.06.03.06.02.07.02.06.02.06.02.06.01.07.01.06.01h.06l.07.01h.06l.06-.01h.07l.06-.01.06-.01.06-.02.06-.01.06-.02.06-.02.06-.03.06-.02.05-.03.06-.03.05-.04.05-.04.06-.03.04-.04.05-.05.05-.04.04-.05.05-.05.04-.05.06-.09.06-.08.06-.09.05-.08.06-.09.05-.08.06-.09.05-.09.06-.09.05-.08.05-.09.05-.09.05-.09.05-.09.05-.09.05-.1.02-.03.01-.03.01-.03.02-.03.01-.04.01-.03.01-.03.01-.04.01-.03v-.03l.01-.04.01-.03.01-.03v-.07l.01-.04v-.23l-.01-.03v-.07l-.01-.07-.02-.06-.01-.07-.02-.06-.03-.06-.02-.06-.03-.06-.01-.03-.02-.03-.02-.03-.01-.03-.02-.03-.02-.03-.02-.03-.02-.03-.02-.02-.02-.03-.02-.03-.02-.02-.03-.03-.02-.02-.02-.03-.03-.02-.02-.02-.03-.03-.03-.02-.02-.02-.03-.02-.03-.02-.03-.02-.03-.02-.08-.05-.08-.05-.07-.06-.08-.06-.07-.06-.07-.06-.07-.06-.06-.07-.06-.07-.07-.07Zm-15.8-5.6.01.02.01.03.01.02.01.02.01.01v.01h.01v.01l.01.01.01.01v.01l.01.01.01.01v.01l.01.01h.01l.01.01v.01l.01.01h.01l.01.01.01.01h.01l.01.01.01.01.02.01.08.06.11.07.1.07.1.08.09.08.09.08.1.09.08.09.09.09.08.09.08.1.08.1.07.1.07.1.07.11.06.11.06.11.06.1.02.06.03.06.03.06.02.06.02.06.03.06.02.06.02.06.02.06.02.06.02.06.01.06.02.06.02.07.01.06.01.06.02.07.01.06.01.07.01.06v.07l.01.06.01.07v.06l.01.07v.4l-.01.06v.07l-.01.07-.01.06v.07l-.01.06-.01.07-.01.06-.02.06-.01.07-.01.06-.02.06-.02.07-.01.06-.02.06-.02.06-.02.06-.02.06-.02.06-.02.06-.03.06-.02.06-.03.06-.05.11-.06.11-.06.11-.06.11-.07.11-.07.1-.07.1-.08.1-.08.1-.08.09-.08.09-.09.09-.09.09-.09.08-.1.08-.09.08-.1.07-.1.07-.1.06-.02.02h-.01l-.01.01v.01h-.01l-.01.01-.01.01-.01.01h-.01v.01l-.01.01-.01.01-.01.01-.01.01-.01.01v.01l-.01.01-.01.01v.01l-.01.01-.01.03-.01.02-.01.02-.01.02v.02l-.01.02v.04l-.01.02V13.87l.01.01v.04l.01.02v.02l.01.01v.01l.01.01v.02l.01.01.04.08.04.08.04.08.05.08.04.08.05.07.04.08.05.07.05.08.04.07.05.07.05.07.05.07.06.07.05.06.07.09.03.04.01.02.02.01.01.02.02.01.01.01.02.01.01.01.02.01.01.01.02.01.02.01.02.01h.01l.02.01h.02l.02.01h.05l.02.01h.04l.02-.01h.04l.02-.01h.02l.01-.01h.02l.02-.01.04-.02.08-.04.1-.04.1-.04.11-.03.1-.04.1-.03.11-.03.11-.02.1-.03.11-.02.11-.01.11-.02.11-.01.11-.01H4.32l.1.01.1.01.1.01.1.01.1.02.1.02.09.02.1.02.09.03.1.03.09.03.1.03.09.04.09.03.09.04.08.04.09.05.09.04.08.05.09.05.08.05.08.05.08.06.07.05.08.06.07.06.08.06.07.07.07.06.07.07.07.07.06.07.06.07.07.07.06.08.06.07.05.08.06.08.05.08.05.08.05.09.05.08.04.09.05.08.04.09.04.09.03.09.04.09.03.1.03.09.03.09.02.1.03.1.02.09.02.1.01.1.02.1.01.1.01.1.01.1v.15l.08.01.13.01.13.01.13.01.13.01h.13l.14.01h.26l.14-.01h.13l.13-.01.14-.01.13-.01.13-.01h.07v-.05l.01-.11v-.1l.01-.1.01-.1.02-.1.01-.1.02-.1.02-.09.03-.1.02-.09.03-.1.03-.09.03-.1.04-.09.04-.09.03-.09.05-.09.04-.08.04-.09.05-.08.05-.09.05-.08.05-.08.06-.08.06-.08.05-.07.06-.08.07-.07.06-.07.07-.07.06-.07.07-.07.07-.06.07-.07.08-.06.07-.06.08-.06.07-.05.08-.06.08-.05.09-.05.08-.05.08-.05.09-.04.09-.05.08-.04.09-.04.09-.03.1-.04.09-.03.09-.03.1-.03.09-.03.1-.02.1-.02.09-.02.1-.02.1-.01.1-.01.1-.01.11-.01h.43l.11.01.11.02.12.01.11.02.11.02.12.03.11.03.11.03.11.04.11.04.1.05.11.04.05.03.06.03.05.03h.01l.02.01.02.01h.02l.03.01h.06l.02.01h.04l.02-.01h.04l.02-.01h.02l.02-.01.02-.01.02-.01h.02l.02-.01.01-.01.02-.01.02-.02.01-.01.02-.01.02-.02.01-.01.02-.02.01-.01.02-.02.04-.07.06-.07.05-.08.05-.08.05-.07.05-.08.05-.08.05-.08.05-.08.05-.08.04-.08.05-.08.05-.09.04-.08.05-.08.03-.07.01-.01.01-.02v-.02l.01-.01v-.02l.01-.01v-.04h.01v-.15l-.01-.02v-.02l-.01-.02v-.03l-.01-.02-.01-.02-.01-.02v-.01l-.01-.01v-.01l-.01-.01-.01-.01v-.01h-.01v-.01l-.01-.01-.01-.01-.01-.01v-.01l-.01-.01h-.01l-.01-.01v-.01l-.01-.01-.01-.01h-.01l-.01-.01-.01-.01h-.01L17 13.4l-.01-.01-.09-.06-.11-.07-.1-.07-.09-.08-.1-.08-.09-.08-.09-.09-.09-.09-.09-.09-.08-.09-.08-.1-.07-.1-.08-.1-.07-.1-.06-.11-.07-.11-.06-.11-.05-.11-.03-.06-.03-.05-.03-.06-.02-.06-.02-.06-.03-.06-.02-.06-.02-.06-.02-.06-.02-.06-.02-.06-.01-.06-.02-.07-.01-.06-.02-.06-.01-.07-.01-.06-.02-.06-.01-.07v-.06l-.01-.07-.01-.06-.01-.07v-.13l-.01-.07v-.27l.01-.06v-.13l.01-.07.01-.06.01-.07v-.06l.01-.07.02-.06.01-.07.01-.06.02-.06.01-.06.02-.07.01-.06.02-.06.02-.06.02-.06.02-.06.02-.06.03-.06.02-.06.02-.06.03-.06.05-.11.06-.11.06-.11.06-.11.07-.11.07-.1.07-.1.08-.1.08-.1.08-.09.08-.09.09-.09.09-.09.09-.08.1-.08.09-.08.1-.07.11-.07.09-.06.02-.02.01-.01h.01l.01-.01.01-.01.01-.01.01-.01.01-.01h.01v-.01l.01-.01.01-.01v-.01l.01-.01h.01l.01-.01v-.01l.01-.01v-.01l.01-.01.01-.03.01-.02.01-.02.01-.02v-.02l.01-.02v-.02l.01-.02V6.12l-.01-.01v-.04l-.01-.01v-.02l-.01-.01v-.02L17.17 6v-.01l-.01-.01-.04-.08-.04-.08-.04-.08-.04-.08-.05-.08-.04-.08-.05-.07-.05-.08-.04-.07-.05-.07-.05-.07-.05-.07-.05-.07-.05-.07-.06-.07-.07-.08-.03-.05-.01-.01-.02-.01-.01-.02-.01-.01-.02-.01-.01-.02-.02-.01-.02-.01-.01-.01h-.02l-.02-.01-.01-.01-.02-.01h-.02l-.02-.01h-.04l-.01-.01h-.1l-.02.01h-.04l-.01.01h-.02l-.02.01-.02.01-.04.01-.08.04-.1.04-.1.04-.1.04-.11.03-.1.04-.11.03-.1.02-.11.02-.11.02-.11.02-.11.01-.11.01-.11.01-.12.01H14.01l-.1-.01h-.11l-.1-.01-.1-.01-.1-.02-.1-.01-.09-.02-.1-.02-.1-.03-.09-.02-.1-.03-.09-.03-.09-.03-.1-.04-.09-.04-.09-.04-.08-.04-.09-.04-.09-.05-.08-.04-.08-.05-.09-.05-.08-.06-.08-.05-.07-.06-.08-.06-.07-.06-.08-.06-.07-.06-.07-.07-.07-.06-.06-.07-.07-.07-.06-.07-.07-.08-.06-.07-.05-.08-.06-.08-.06-.07-.05-.08-.05-.09-.05-.08-.05-.08-.04-.09-.04-.09-.05-.09-.03-.08-.04-.09-.04-.1-.03-.09-.03-.09-.03-.1-.02-.09-.03-.1-.02-.1-.02-.09-.01-.1-.02-.1-.01-.1-.01-.1V1.2l-.01-.1v-.05h-.08l-.13-.02-.13-.01h-.13l-.13-.01L9.38 1h-.54l-.13.01h-.13l-.14.01-.13.01-.13.01-.07.01V1.2l-.01.11-.01.1-.01.1-.02.1-.01.1-.02.09-.02.1-.03.1-.02.09-.03.1-.03.09-.03.09-.04.1-.03.09-.04.09-.04.08-.05.09-.04.09-.05.08-.05.08-.05.08-.05.09-.06.08-.06.07-.05.08-.06.07-.07.08-.06.07-.06.07-.07.07-.07.06-.07.07-.07.06-.08.06-.07.06-.08.06-.07.06-.08.06-.08.05-.08.05-.09.05-.08.04-.09.05-.09.04-.08.05-.09.03-.09.04-.09.04-.1.03-.09.03-.1.03-.09.02-.1.03-.09.02-.1.02-.1.01-.1.02-.1.01-.1.01h-.1L4.21 5H4l-.12-.01-.11-.01-.11-.01-.12-.01-.11-.02-.11-.02-.11-.03-.12-.03-.11-.03-.11-.04-.11-.04-.1-.05-.11-.05-.05-.03-.05-.02-.05-.03-.02-.01h-.02l-.02-.01-.02-.01h-.04l-.02-.01H2.15l-.02.01h-.02l-.02.01h-.02l-.02.01h-.02l-.02.01-.02.01-.01.01-.02.01-.02.01-.02.01-.01.02-.02.01-.02.01-.01.02-.02.01-.01.02-.01.02-.05.06-.05.08-.06.08-.05.07-.05.08-.05.08-.05.08-.05.08-.05.08-.05.08-.04.08-.05.08-.05.08-.04.09-.05.08-.03.07h-.01V6l-.01.02v.01l-.01.01v.02l-.01.01v.04L1 6.12v.14l.01.02v.02l.01.02v.02Z"/></g></g></svg>