<svg xmlns="http://www.w3.org/2000/svg" xmlns:xlink="http://www.w3.org/1999/xlink" width="112" height="76" viewBox="0 0 112 76" fill="none"><defs><radialGradient id="linear_0" cx="72.83335349797002%" cy="99.99999154796969%" fx="72.83335349797002%" fy="99.99999154796969%" r="1.269808633611708" gradientTransform="translate(0.7283335349797002 0.9999999154796968) scale(4.75 1) rotate(260.6444851538549) scale(1 0.8231548920756371) translate(-0.7283335349797002 -0.9999999154796968)" ><stop offset="0" stop-color="#FFB8E0" stop-opacity="1" /><stop offset="0.3889496326446533" stop-color="#BE9EFF" stop-opacity="1" /><stop offset="0.6739622354507446" stop-color="#88C0FC" stop-opacity="1" /><stop offset="1" stop-color="#86FF99" stop-opacity="1" /></radialGradient><radialGradient id="linear_1" cx="72.83335349797002%" cy="99.99999154796969%" fx="72.83335349797002%" fy="99.99999154796969%" r="1.269808633611708" gradientTransform="translate(0.7283335349797002 0.9999999154796968) scale(2.375 1) rotate(251.76281013365656) scale(1 0.868861902033378) translate(-0.7283335349797002 -0.9999999154796968)" ><stop offset="0" stop-color="#FFB8E0" stop-opacity="1" /><stop offset="0.3889496326446533" stop-color="#BE9EFF" stop-opacity="1" /><stop offset="0.6739622354507446" stop-color="#88C0FC" stop-opacity="1" /><stop offset="1" stop-color="#86FF99" stop-opacity="1" /></radialGradient><radialGradient id="linear_2" cx="72.83335349797002%" cy="99.99999154796969%" fx="72.83335349797002%" fy="99.99999154796969%" r="1.269808633611708" gradientTransform="translate(0.7283335349797002 0.9999999154796968) scale(4.0625 1) rotate(259.0965368230959) scale(1 0.8292765367619185) translate(-0.7283335349797002 -0.9999999154796968)" ><stop offset="0" stop-color="#FFB8E0" stop-opacity="1" /><stop offset="0.3889496326446533" stop-color="#BE9EFF" stop-opacity="1" /><stop offset="0.6739622354507446" stop-color="#88C0FC" stop-opacity="1" /><stop offset="1" stop-color="#86FF99" stop-opacity="1" /></radialGradient><radialGradient id="linear_3" cx="72.83335349797002%" cy="99.99999154796969%" fx="72.83335349797002%" fy="99.99999154796969%" r="1.269808633611708" gradientTransform="translate(0.7283335349797002 0.9999999154796968) scale(2.8125 1) rotate(254.4509491484105) scale(1 0.8524765248688588) translate(-0.7283335349797002 -0.9999999154796968)" ><stop offset="0" stop-color="#FFB8E0" stop-opacity="1" /><stop offset="0.3889496326446533" stop-color="#BE9EFF" stop-opacity="1" /><stop offset="0.6739622354507446" stop-color="#88C0FC" stop-opacity="1" /><stop offset="1" stop-color="#86FF99" stop-opacity="1" /></radialGradient><radialGradient id="linear_4" cx="72.83335349797002%" cy="99.99999154796969%" fx="72.83335349797002%" fy="99.99999154796969%" r="1.269808633611708" gradientTransform="translate(0.7283335349797002 0.9999999154796968) scale(3.375 1) rotate(256.94539463498705) scale(1 0.8391560978648709) translate(-0.7283335349797002 -0.9999999154796968)" ><stop offset="0" stop-color="#FFB8E0" stop-opacity="1" /><stop offset="0.3889496326446533" stop-color="#BE9EFF" stop-opacity="1" /><stop offset="0.6739622354507446" stop-color="#88C0FC" stop-opacity="1" /><stop offset="1" stop-color="#86FF99" stop-opacity="1" /></radialGradient></defs><g opacity="1" transform="translate(0 0)  rotate(0 56 38)"><path id="Base" fill-rule="evenodd" fill="url(#linear_0)" transform="translate(0 0)  rotate(0 8 38)" opacity="1" d="M4,76L12,76C14.21,76 16,74.21 16,72L16,4C16,1.79 14.21,0 12,0L4,0C1.79,0 0,1.79 0,4L0,72C0,74.21 1.79,76 4,76Z " /><path id="Base" fill-rule="evenodd" fill="url(#linear_1)" transform="translate(24 38)  rotate(0 8 19)" opacity="1" d="M4,38L12,38C14.21,38 16,36.21 16,34L16,4C16,1.79 14.21,0 12,0L4,0C1.79,0 0,1.79 0,4L0,34C0,36.21 1.79,38 4,38Z " /><path id="Base" fill-rule="evenodd" fill="url(#linear_2)" transform="translate(48 11)  rotate(0 8 32.5)" opacity="1" d="M4,65L12,65C14.21,65 16,63.21 16,61L16,4C16,1.79 14.21,0 12,0L4,0C1.79,0 0,1.79 0,4L0,61C0,63.21 1.79,65 4,65Z " /><path id="Base" fill-rule="evenodd" fill="url(#linear_3)" transform="translate(72 31)  rotate(0 8 22.5)" opacity="1" d="M4,45L12,45C14.21,45 16,43.21 16,41L16,4C16,1.79 14.21,0 12,0L4,0C1.79,0 0,1.79 0,4L0,41C0,43.21 1.79,45 4,45Z " /><path id="Base" fill-rule="evenodd" fill="url(#linear_4)" transform="translate(96 22)  rotate(0 8 27)" opacity="1" d="M4,54L12,54C14.21,54 16,52.21 16,50L16,4C16,1.79 14.21,0 12,0L4,0C1.79,0 0,1.79 0,4L0,50C0,52.21 1.79,54 4,54Z " /></g></svg>