<svg xmlns="http://www.w3.org/2000/svg" width="71" height="71" fill="none"><defs><linearGradient id="a" x1="52.9265%" y1="119.8477%" x2="47.5312%" y2="-9.09%" gradientUnits="objectBoundingBox"><stop offset=".0791" stop-color="#4268DB"/><stop offset=".2112" stop-color="#558CE4"/><stop offset=".3722" stop-color="#69B1EE"/><stop offset=".5335" stop-color="#78CFF5"/><stop offset=".6928" stop-color="#83E3FB"/><stop offset=".8494" stop-color="#8AF0FE"/><stop offset="1" stop-color="#8CF4FF"/></linearGradient><linearGradient id="b" x1="52.9265%" y1="119.8477%" x2="47.5312%" y2="-9.09%" gradientUnits="objectBoundingBox"><stop offset=".0791" stop-color="#4268DB"/><stop offset=".2112" stop-color="#558CE4"/><stop offset=".3722" stop-color="#69B1EE"/><stop offset=".5335" stop-color="#78CFF5"/><stop offset=".6928" stop-color="#83E3FB"/><stop offset=".8494" stop-color="#8AF0FE"/><stop offset="1" stop-color="#8CF4FF"/></linearGradient><radialGradient id="c" cx="72.8334%" cy="100%" fx="72.8334%" fy="100%" r="1.2698" gradientTransform="rotate(-128.046 .7212 1.0147) scale(1 1.02944)"><stop offset="0" stop-color="#FFB8E0"/><stop offset=".3889" stop-color="#BE9EFF"/><stop offset=".674" stop-color="#88C0FC"/><stop offset="1" stop-color="#86FF99"/></radialGradient></defs><g fill-rule="evenodd"><path fill="url(#a)" transform="translate(.0087 .0085) translate(5 27)" d="M1.48 17.41c.05.15.1.29.15.43.03.08.05.15.08.23l.15.42c.03.08.06.15.09.23.05.14.11.28.16.42.03.07.06.15.09.22.06.14.12.28.18.41.03.08.06.16.09.23.06.14.12.27.18.4.04.08.07.16.11.24.06.13.12.26.19.39.04.08.07.16.11.23.06.13.13.26.2.39.04.08.07.15.11.23.07.13.14.25.21.38.04.07.08.15.12.23.07.12.14.25.21.37.05.08.09.16.13.23.08.13.15.25.22.37.05.07.09.15.14.23.08.12.15.24.23.36.05.07.1.15.15.23.07.12.15.23.23.35.05.08.1.16.15.23.08.12.16.23.24.35.06.07.11.15.17.22.08.12.16.23.24.34.06.07.11.15.17.23.08.11.16.21.24.31.06.08.13.17.19.25l.27.33c.05.07.11.14.17.21.09.12.19.23.28.34.06.06.12.13.18.2.09.1.18.21.27.31.07.07.13.15.2.22.1.11.2.22.31.33.05.06.11.13.17.19.17.17.33.34.5.51 5.67 5.67 13.21 8.8 21.22 8.8 8.02 0 15.56-3.13 21.23-8.8C56.88 23.53 60 15.98 60 7.96c0-.25 0-.49-.01-.73v-.2c-.01-.18-.01-.35-.02-.53-.01-.07-.01-.14-.01-.21-.01-.17-.02-.35-.04-.52 0-.07-.01-.14-.01-.2-.02-.18-.03-.35-.05-.53 0-.06-.01-.13-.02-.19-.01-.18-.03-.35-.05-.53-.01-.06-.02-.12-.03-.19-.02-.17-.04-.35-.07-.52-.01-.07-.02-.13-.03-.2-.02-.17-.05-.34-.08-.52-.01-.06-.02-.13-.04-.2-.03-.17-.06-.33-.09-.5 0-.02-.01-.04-.01-.06C55.56.63 51.28-.27 46.82.07c-.74.06-1.49.15-2.25.28-5.18.89-8.82 3.26-12.19 5.78-4.35 3.25-8.26 6.76-14.49 7.65-4.42.64-10.33.01-17.87-4.61L0 9.19c.01.14.01.29.02.43.01.09.01.17.01.26.02.15.03.3.04.45.01.09.01.17.02.25.01.15.03.31.04.46l.03.24c.01.16.03.31.05.46l.03.24c.02.15.04.3.07.45.01.08.02.17.03.25.02.15.05.3.08.45.01.08.02.16.04.24.02.15.05.3.08.45.02.08.03.16.05.23l.09.45.06.24c.03.14.07.29.1.44.02.08.04.16.06.23l.12.45c.02.07.04.15.06.22.04.15.08.3.13.44.02.08.04.16.06.23.05.15.09.29.14.43.02.08.05.16.07.23Z"/><path fill="url(#b)" transform="translate(.0087 .0085) translate(5 29)" d="M32 4.56C23.59 2.15 19.03-.09 13.54 0 7.26.11 3.28 3.15 0 7.43c7.46 4.38 13.31 4.97 17.67 4.37C23.83 10.95 27.7 7.64 32 4.56Z"/><path fill="url(#c)" d="m.54 41.15 3.22-.57C.68 23.32 12.17 6.84 29.42 3.76 46.68.68 63.16 12.17 66.24 29.42c3.08 17.26-8.41 33.74-25.66 36.82-17.26 3.08-33.74-8.41-36.82-25.66l-3.22.57c3.4 19.03 21.58 31.7 40.61 28.31 19.03-3.4 31.7-21.58 28.31-40.61C66.06 9.82 47.88-2.85 28.85.54 9.82 3.94-2.85 22.12.54 41.15Z" transform="translate(.0087 .0085)"/></g></svg>